<?xml version="1.0" encoding="UTF-8"?>
<mxfile host="app.diagrams.net" agent="Mozilla/5.0 (X11; Linux x86_64) AppleWebKit/537.36 (KHTML, like Gecko) Chrome/141.0.0.0 Safari/537.36" version="28.2.5">
  <diagram name="Pagina-1" id="SHImMo-cX8PR3l8xb86j">
    <mxGraphModel dx="830" dy="431" grid="1" gridSize="10" guides="1" tooltips="1" connect="1" arrows="1" fold="1" page="1" pageScale="1" pageWidth="1169" pageHeight="827" math="0" shadow="0">
      <root>
        <mxCell id="0" />
        <mxCell id="1" parent="0" />
        <mxCell id="unjvJsAtwSInByf4UnUb-1" value="&lt;span style=&quot;font-size: 18px;&quot;&gt;DIPENDENTE&lt;/span&gt;" style="rounded=0;whiteSpace=wrap;html=1;" parent="1" vertex="1">
          <mxGeometry x="227" y="287.5" width="160" height="60" as="geometry" />
        </mxCell>
        <mxCell id="unjvJsAtwSInByf4UnUb-5" value="" style="endArrow=none;html=1;rounded=0;exitX=0.067;exitY=0;exitDx=0;exitDy=0;exitPerimeter=0;" parent="1" edge="1">
          <mxGeometry width="50" height="50" relative="1" as="geometry">
            <mxPoint x="365" y="287.5" as="sourcePoint" />
            <mxPoint x="365" y="257.5" as="targetPoint" />
          </mxGeometry>
        </mxCell>
        <mxCell id="unjvJsAtwSInByf4UnUb-6" value="" style="ellipse;whiteSpace=wrap;html=1;aspect=fixed;" parent="1" vertex="1">
          <mxGeometry x="360" y="247.5" width="10" height="10" as="geometry" />
        </mxCell>
        <mxCell id="unjvJsAtwSInByf4UnUb-7" value="&lt;font style=&quot;font-size: 14px;&quot;&gt;nome&lt;/font&gt;" style="text;html=1;align=center;verticalAlign=middle;resizable=0;points=[];autosize=1;strokeColor=none;fillColor=none;" parent="1" vertex="1">
          <mxGeometry x="279" y="224" width="60" height="30" as="geometry" />
        </mxCell>
        <mxCell id="unjvJsAtwSInByf4UnUb-14" value="" style="endArrow=none;html=1;rounded=0;exitX=0.067;exitY=0;exitDx=0;exitDy=0;exitPerimeter=0;" parent="1" edge="1">
          <mxGeometry width="50" height="50" relative="1" as="geometry">
            <mxPoint x="307" y="287.5" as="sourcePoint" />
            <mxPoint x="307" y="257.5" as="targetPoint" />
          </mxGeometry>
        </mxCell>
        <mxCell id="unjvJsAtwSInByf4UnUb-15" value="" style="ellipse;whiteSpace=wrap;html=1;aspect=fixed;direction=south;" parent="1" vertex="1">
          <mxGeometry x="302" y="247.5" width="10" height="10" as="geometry" />
        </mxCell>
        <mxCell id="unjvJsAtwSInByf4UnUb-61" value="&lt;font style=&quot;font-size: 18px;&quot;&gt;POSTO AUTO&lt;/font&gt;" style="rounded=0;whiteSpace=wrap;html=1;" parent="1" vertex="1">
          <mxGeometry x="760" y="288.5" width="160" height="60" as="geometry" />
        </mxCell>
        <mxCell id="unjvJsAtwSInByf4UnUb-65" value="" style="endArrow=none;html=1;rounded=0;exitX=0.067;exitY=0;exitDx=0;exitDy=0;exitPerimeter=0;" parent="1" edge="1">
          <mxGeometry width="50" height="50" relative="1" as="geometry">
            <mxPoint x="830" y="349" as="sourcePoint" />
            <mxPoint x="830" y="379" as="targetPoint" />
          </mxGeometry>
        </mxCell>
        <mxCell id="unjvJsAtwSInByf4UnUb-66" value="" style="ellipse;whiteSpace=wrap;html=1;aspect=fixed;rotation=-180;" parent="1" vertex="1">
          <mxGeometry x="825" y="379" width="10" height="10" as="geometry" />
        </mxCell>
        <mxCell id="unjvJsAtwSInByf4UnUb-71" value="" style="endArrow=none;html=1;rounded=0;exitX=0.067;exitY=0;exitDx=0;exitDy=0;exitPerimeter=0;" parent="1" edge="1">
          <mxGeometry width="50" height="50" relative="1" as="geometry">
            <mxPoint x="772" y="348" as="sourcePoint" />
            <mxPoint x="772" y="378" as="targetPoint" />
          </mxGeometry>
        </mxCell>
        <mxCell id="unjvJsAtwSInByf4UnUb-72" value="" style="ellipse;whiteSpace=wrap;html=1;aspect=fixed;rotation=-180;fillColor=#000000;" parent="1" vertex="1">
          <mxGeometry x="767" y="379" width="10" height="10" as="geometry" />
        </mxCell>
        <mxCell id="unjvJsAtwSInByf4UnUb-78" value="&lt;font style=&quot;font-size: 14px;&quot;&gt;targa&lt;/font&gt;" style="text;html=1;align=center;verticalAlign=middle;resizable=0;points=[];autosize=1;strokeColor=none;fillColor=none;" parent="1" vertex="1">
          <mxGeometry x="742" y="384" width="60" height="30" as="geometry" />
        </mxCell>
        <mxCell id="unjvJsAtwSInByf4UnUb-80" value="&lt;font style=&quot;font-size: 14px;&quot;&gt;marca&lt;/font&gt;" style="text;html=1;align=center;verticalAlign=middle;resizable=0;points=[];autosize=1;strokeColor=none;fillColor=none;" parent="1" vertex="1">
          <mxGeometry x="801" y="384" width="60" height="30" as="geometry" />
        </mxCell>
        <mxCell id="unjvJsAtwSInByf4UnUb-81" value="&lt;font style=&quot;font-size: 18px;&quot;&gt;ASSEGNATO&lt;/font&gt;" style="rhombus;whiteSpace=wrap;html=1;" parent="1" vertex="1">
          <mxGeometry x="507" y="288" width="141" height="60" as="geometry" />
        </mxCell>
        <mxCell id="unjvJsAtwSInByf4UnUb-83" value="" style="endArrow=none;html=1;rounded=0;exitX=1;exitY=0.5;exitDx=0;exitDy=0;entryX=0;entryY=0.5;entryDx=0;entryDy=0;" parent="1" source="unjvJsAtwSInByf4UnUb-1" target="unjvJsAtwSInByf4UnUb-81" edge="1">
          <mxGeometry width="50" height="50" relative="1" as="geometry">
            <mxPoint x="597" y="501.5" as="sourcePoint" />
            <mxPoint x="647" y="451.5" as="targetPoint" />
          </mxGeometry>
        </mxCell>
        <mxCell id="unjvJsAtwSInByf4UnUb-84" value="" style="endArrow=none;html=1;rounded=0;exitX=1;exitY=0.5;exitDx=0;exitDy=0;entryX=0;entryY=0.5;entryDx=0;entryDy=0;" parent="1" source="unjvJsAtwSInByf4UnUb-81" target="unjvJsAtwSInByf4UnUb-61" edge="1">
          <mxGeometry width="50" height="50" relative="1" as="geometry">
            <mxPoint x="597" y="501.5" as="sourcePoint" />
            <mxPoint x="647" y="451.5" as="targetPoint" />
          </mxGeometry>
        </mxCell>
        <mxCell id="unjvJsAtwSInByf4UnUb-88" value="" style="endArrow=none;html=1;rounded=0;exitX=0.067;exitY=0;exitDx=0;exitDy=0;exitPerimeter=0;" parent="1" edge="1">
          <mxGeometry width="50" height="50" relative="1" as="geometry">
            <mxPoint x="906" y="349" as="sourcePoint" />
            <mxPoint x="906" y="379" as="targetPoint" />
          </mxGeometry>
        </mxCell>
        <mxCell id="unjvJsAtwSInByf4UnUb-89" value="" style="ellipse;whiteSpace=wrap;html=1;aspect=fixed;rotation=-180;" parent="1" vertex="1">
          <mxGeometry x="901" y="379" width="10" height="10" as="geometry" />
        </mxCell>
        <mxCell id="unjvJsAtwSInByf4UnUb-90" value="&lt;font style=&quot;font-size: 14px;&quot;&gt;colore&lt;/font&gt;" style="text;html=1;align=center;verticalAlign=middle;resizable=0;points=[];autosize=1;strokeColor=none;fillColor=none;" parent="1" vertex="1">
          <mxGeometry x="879" y="384" width="60" height="30" as="geometry" />
        </mxCell>
        <mxCell id="unjvJsAtwSInByf4UnUb-91" value="&lt;font style=&quot;font-size: 18px;&quot;&gt;(1,1)&lt;/font&gt;" style="text;html=1;align=center;verticalAlign=middle;resizable=0;points=[];autosize=1;strokeColor=none;fillColor=none;" parent="1" vertex="1">
          <mxGeometry x="390" y="280" width="60" height="40" as="geometry" />
        </mxCell>
        <mxCell id="unjvJsAtwSInByf4UnUb-92" value="&lt;font style=&quot;font-size: 18px;&quot;&gt;(0,1)&lt;/font&gt;" style="text;html=1;align=center;verticalAlign=middle;resizable=0;points=[];autosize=1;strokeColor=none;fillColor=none;" parent="1" vertex="1">
          <mxGeometry x="692" y="280" width="60" height="40" as="geometry" />
        </mxCell>
        <mxCell id="CcaYhzzBdF9eLu_KtUvN-2" value="&lt;font style=&quot;font-size: 14px;&quot;&gt;cognome&lt;/font&gt;" style="text;html=1;align=center;verticalAlign=middle;resizable=0;points=[];autosize=1;strokeColor=none;fillColor=none;" parent="1" vertex="1">
          <mxGeometry x="327" y="224" width="80" height="30" as="geometry" />
        </mxCell>
        <mxCell id="sy5HOTditzcSrkJo1PVW-5" value="" style="endArrow=none;html=1;rounded=0;exitX=0.067;exitY=0;exitDx=0;exitDy=0;exitPerimeter=0;" edge="1" parent="1">
          <mxGeometry width="50" height="50" relative="1" as="geometry">
            <mxPoint x="256" y="347.5" as="sourcePoint" />
            <mxPoint x="256" y="377.5" as="targetPoint" />
          </mxGeometry>
        </mxCell>
        <mxCell id="sy5HOTditzcSrkJo1PVW-6" value="" style="ellipse;whiteSpace=wrap;html=1;aspect=fixed;rotation=-180;fillColor=#000000;" vertex="1" parent="1">
          <mxGeometry x="251" y="377.5" width="10" height="10" as="geometry" />
        </mxCell>
        <mxCell id="sy5HOTditzcSrkJo1PVW-7" value="&lt;font style=&quot;font-size: 14px;&quot;&gt;ID&lt;/font&gt;" style="text;html=1;align=center;verticalAlign=middle;resizable=0;points=[];autosize=1;strokeColor=none;fillColor=none;" vertex="1" parent="1">
          <mxGeometry x="237" y="382.5" width="40" height="30" as="geometry" />
        </mxCell>
        <mxCell id="sy5HOTditzcSrkJo1PVW-8" value="" style="endArrow=none;html=1;rounded=0;exitX=0.067;exitY=0;exitDx=0;exitDy=0;exitPerimeter=0;" edge="1" parent="1">
          <mxGeometry width="50" height="50" relative="1" as="geometry">
            <mxPoint x="351" y="347.5" as="sourcePoint" />
            <mxPoint x="351" y="377.5" as="targetPoint" />
          </mxGeometry>
        </mxCell>
        <mxCell id="sy5HOTditzcSrkJo1PVW-9" value="" style="ellipse;whiteSpace=wrap;html=1;aspect=fixed;rotation=-180;" vertex="1" parent="1">
          <mxGeometry x="346" y="377.5" width="10" height="10" as="geometry" />
        </mxCell>
        <mxCell id="sy5HOTditzcSrkJo1PVW-10" value="&lt;font style=&quot;font-size: 14px;&quot;&gt;telefono&lt;/font&gt;" style="text;html=1;align=center;verticalAlign=middle;resizable=0;points=[];autosize=1;strokeColor=none;fillColor=none;" vertex="1" parent="1">
          <mxGeometry x="317" y="382.5" width="70" height="30" as="geometry" />
        </mxCell>
        <mxCell id="sy5HOTditzcSrkJo1PVW-26" value="&lt;font style=&quot;font-size: 14px;&quot;&gt;modello&lt;/font&gt;" style="text;html=1;align=center;verticalAlign=middle;resizable=0;points=[];autosize=1;strokeColor=none;fillColor=none;" vertex="1" parent="1">
          <mxGeometry x="808.5" y="225" width="70" height="30" as="geometry" />
        </mxCell>
        <mxCell id="sy5HOTditzcSrkJo1PVW-27" value="" style="endArrow=none;html=1;rounded=0;exitX=0.067;exitY=0;exitDx=0;exitDy=0;exitPerimeter=0;" edge="1" parent="1">
          <mxGeometry width="50" height="50" relative="1" as="geometry">
            <mxPoint x="841.5" y="288.5" as="sourcePoint" />
            <mxPoint x="841.5" y="258.5" as="targetPoint" />
          </mxGeometry>
        </mxCell>
        <mxCell id="sy5HOTditzcSrkJo1PVW-28" value="" style="ellipse;whiteSpace=wrap;html=1;aspect=fixed;direction=south;" vertex="1" parent="1">
          <mxGeometry x="836.5" y="248.5" width="10" height="10" as="geometry" />
        </mxCell>
        <mxCell id="sy5HOTditzcSrkJo1PVW-37" value="&lt;font style=&quot;font-size: 14px;&quot;&gt;reparto&lt;/font&gt;" style="text;html=1;align=center;verticalAlign=middle;resizable=0;points=[];autosize=1;strokeColor=none;fillColor=none;" vertex="1" parent="1">
          <mxGeometry x="205" y="224" width="70" height="30" as="geometry" />
        </mxCell>
        <mxCell id="sy5HOTditzcSrkJo1PVW-38" value="" style="endArrow=none;html=1;rounded=0;exitX=0.067;exitY=0;exitDx=0;exitDy=0;exitPerimeter=0;" edge="1" parent="1">
          <mxGeometry width="50" height="50" relative="1" as="geometry">
            <mxPoint x="238" y="287.5" as="sourcePoint" />
            <mxPoint x="238" y="257.5" as="targetPoint" />
          </mxGeometry>
        </mxCell>
        <mxCell id="sy5HOTditzcSrkJo1PVW-39" value="" style="ellipse;whiteSpace=wrap;html=1;aspect=fixed;direction=south;" vertex="1" parent="1">
          <mxGeometry x="233" y="247.5" width="10" height="10" as="geometry" />
        </mxCell>
        <mxCell id="sy5HOTditzcSrkJo1PVW-40" value="" style="endArrow=none;html=1;rounded=0;exitX=0.067;exitY=0;exitDx=0;exitDy=0;exitPerimeter=0;" edge="1" parent="1">
          <mxGeometry width="50" height="50" relative="1" as="geometry">
            <mxPoint x="577.5" y="288.5" as="sourcePoint" />
            <mxPoint x="577.5" y="258.5" as="targetPoint" />
          </mxGeometry>
        </mxCell>
        <mxCell id="sy5HOTditzcSrkJo1PVW-41" value="" style="ellipse;whiteSpace=wrap;html=1;aspect=fixed;" vertex="1" parent="1">
          <mxGeometry x="572.5" y="248.5" width="10" height="10" as="geometry" />
        </mxCell>
        <mxCell id="sy5HOTditzcSrkJo1PVW-42" value="&lt;font style=&quot;font-size: 14px;&quot;&gt;data&lt;/font&gt;" style="text;html=1;align=center;verticalAlign=middle;resizable=0;points=[];autosize=1;strokeColor=none;fillColor=none;" vertex="1" parent="1">
          <mxGeometry x="554.5" y="225" width="50" height="30" as="geometry" />
        </mxCell>
        <mxCell id="sy5HOTditzcSrkJo1PVW-43" value="&lt;font style=&quot;font-size: 15px;&quot;&gt;(0,1)&lt;/font&gt;" style="text;html=1;align=center;verticalAlign=middle;resizable=0;points=[];autosize=1;strokeColor=none;fillColor=none;" vertex="1" parent="1">
          <mxGeometry x="345" y="350" width="50" height="30" as="geometry" />
        </mxCell>
      </root>
    </mxGraphModel>
  </diagram>
</mxfile>
